<svg width="130" height="113" viewBox="0 0 130 113" fill="none" xmlns="http://www.w3.org/2000/svg">
<path d="M109.768 91.5878L109.777 91.5974L91.6334 107.521C87.9134 110.866 83.1034 112.762 78.0893 112.855L78.0473 112.856H15.8721C13.5705 112.953 11.277 112.522 9.16904 111.596C7.02382 110.655 5.12865 109.227 3.63619 107.425C2.14364 105.624 1.09572 103.501 0.57492 101.226C0.063798 98.9896 0.0748897 96.6641 0.609773 94.4323L5.3967 70.0523C5.82254 67.9301 6.94797 66.009 8.59525 64.5951L8.82998 64.3937C8.32041 63.6243 7.94768 62.7719 7.72912 61.8738C7.4392 60.6826 7.42908 59.4431 7.69612 58.251L12.4926 33.8256L12.5 33.7908C13.4334 29.4079 15.7846 25.4508 19.1937 22.5254L35.805 7.94661C36.5736 7.06846 37.4174 6.25044 38.3302 5.50261C41.9663 2.52335 46.4911 0.82682 51.1979 0.676635L51.2762 0.674133L113.527 0.852372C115.826 0.756771 118.117 1.18795 120.222 2.11224C122.368 3.05403 124.263 4.48214 125.755 6.28326C127.247 8.08411 128.296 10.2073 128.816 12.4833C129.328 14.7203 129.316 17.044 128.782 19.2746L116.892 79.9877L116.875 80.0615C115.83 84.5731 113.334 88.6197 109.768 91.5878Z" fill="#03301D"/>
<path d="M112.555 6.46226C114.19 6.37972 115.822 6.68121 117.321 7.34215C118.819 8.00307 120.142 9.00514 121.184 10.2687C122.226 11.5323 122.958 13.022 123.321 14.619C123.685 16.2161 123.67 17.8761 123.278 19.4663L111.438 80.218C110.606 83.8276 108.604 87.0608 105.743 89.4129C102.883 91.7651 99.3239 93.1044 95.6224 93.222H33.6775C32.0418 93.3036 30.4095 93.0021 28.9107 92.3412C27.4119 91.6801 26.0881 90.6785 25.0446 89.4158C24.0011 88.1527 23.2668 86.6636 22.9002 85.0671C22.5336 83.4703 22.5447 81.8098 22.9328 80.218L27.7132 55.6402C27.9935 54.4406 28.6625 53.3675 29.6159 52.5877C30.5693 51.8077 31.7538 51.3648 32.9851 51.328C44.2884 51.7302 55.1451 52.5793 65.2645 56.2211L67.4983 70.2753C67.5529 70.6147 67.7318 70.9215 68.0002 71.1361C68.2686 71.3509 68.607 71.4584 68.9502 71.4373C69.3442 71.4303 69.7298 71.3195 70.0671 71.1153C70.4045 70.9114 70.6821 70.6214 70.8714 70.2753L78.5111 56.2211L93.7907 51.3951C94.1603 51.2767 94.4928 51.0644 94.7553 50.7783C95.0178 50.4922 95.2012 50.1427 95.2873 49.7643C95.3747 49.4294 95.3335 49.074 95.1723 48.768C95.0113 48.462 94.7416 48.2278 94.416 48.1108L81.0129 43.3066L78.7791 29.2531C78.7247 28.9117 78.5464 28.6023 78.2789 28.3841C78.0111 28.1656 77.6723 28.0534 77.3271 28.0689C76.9306 28.0778 76.5437 28.1923 76.206 28.4004C75.8684 28.6085 75.5922 28.9027 75.406 29.2531L67.7663 43.3066C56.6879 46.4851 45.225 48.1246 33.6999 48.1779C33.1467 48.225 32.5903 48.1397 32.0763 47.9296C31.5623 47.7198 31.1055 47.3911 30.7435 46.9701C30.3815 46.5491 30.1246 46.0478 29.9939 45.5082C29.8633 44.9685 29.8624 44.4053 29.9917 43.8651L34.7722 19.2874C35.5992 15.6796 37.5971 12.4472 40.4543 10.0947C43.3115 7.74224 46.8669 6.40249 50.5656 6.28387L112.555 6.46226Z" fill="#86EE02"/>
</svg>